<svg class="img-fluid" id="outputsvg" xmlns="http://www.w3.org/2000/svg" style="transform: matrix(1, 0, 0, 1, 0, 0); transform-origin: 50% 50%; cursor: move; transition: transform 200ms ease-in-out;" width="534" height="535" viewBox="0 0 5340 5350"><g id="l2EZu2nC3xwxOhZUTQ2bwPQ" fill="rgb(255,255,255)" style="transform: none;"><g style="transform: none;"><path id="p88ZUkDBH" d="M2495 5324 c-297 -29 -489 -71 -725 -156 -853 -308 -1506 -1066 -1684 -1955 -42 -204 -50 -299 -50 -533 0 -234 8 -329 50 -533 150 -752 640 -1415 1319 -1789 292 -161 600 -260 955 -309 124 -17 516 -17 640 0 598 82 1103 324 1524 731 432 417 702 959 787 1580 17 124 17 516 0 640 -69 506 -256 949 -560 1330 -425 533 -1025 875 -1715 976 -98 14 -459 26 -541 18z m515 -134 c561 -81 1034 -311 1429 -695 420 -408 669 -903 753 -1500 7 -51 13 -187 13 -315 0 -128 -6 -264 -13 -315 -84 -598 -332 -1092 -753 -1500 -400 -389 -872 -616 -1444 -697 -117 -17 -513 -17 -630 0 -598 84 -1091 332 -1500 753 -389 400 -616 872 -697 1444 -17 117 -17 513 0 630 84 598 332 1091 753 1500 398 386 904 631 1439 695 47 5 101 12 120 14 63 7 453 -3 530 -14z"></path><path id="p13fdEA893" d="M2582 4268 c-682 -381 -1124 -1082 -1261 -1998 -24 -158 -41 -375 -41 -512 l0 -97 64 -36 c101 -56 291 -139 437 -190 136 -47 398 -119 406 -112 2 3 -7 21 -21 42 -14 21 -33 61 -42 89 l-17 53 -156 52 c-85 29 -224 86 -308 126 l-153 74 0 118 c0 325 68 695 186 1018 46 128 49 132 126 212 65 66 88 83 125 92 25 7 47 10 49 9 2 -2 -20 -33 -47 -68 -28 -36 -82 -108 -120 -161 l-69 -96 14 -40 c41 -117 116 -222 195 -272 58 -38 384 -181 411 -181 25 0 46 36 121 210 36 85 72 156 80 157 8 2 43 -35 79 -82 74 -97 62 -99 157 17 30 37 58 68 62 68 4 0 17 -21 28 -47 12 -27 44 -98 71 -159 60 -134 79 -164 102 -164 31 0 396 165 438 199 52 41 104 112 141 192 48 104 52 88 -78 264 -66 88 -118 161 -116 163 1 2 24 -2 49 -9 37 -9 62 -27 120 -84 64 -64 77 -83 110 -164 129 -324 206 -715 206 -1053 l0 -136 -65 -36 c-124 -68 -338 -155 -497 -201 -43 -12 -58 -21 -58 -35 0 -10 -17 -52 -38 -94 l-38 -75 25 5 c273 62 598 179 796 288 l80 44 -1 173 c-6 608 -197 1256 -506 1711 -177 262 -459 538 -694 680 -78 47 -204 108 -224 108 -9 0 -66 -28 -128 -62z m546 -1154 l65 -37 75 37 c41 20 76 36 77 34 2 -2 -3 -39 -11 -83 l-14 -80 61 -56 c33 -31 57 -59 52 -62 -4 -2 -35 -8 -68 -11 -33 -4 -68 -9 -77 -12 -10 -3 -34 -40 -54 -82 l-36 -77 -34 70 c-19 39 -41 75 -50 82 -8 6 -43 14 -77 18 -34 4 -66 10 -70 12 -5 3 17 32 49 64 l58 58 -12 64 c-14 73 -15 97 -5 97 3 0 35 -16 71 -36z m-748 -204 l0 -40 -155 0 -155 0 0 40 0 40 155 0 155 0 0 -40z"></path><path id="pvllFZIWe" d="M2635 2496 c-113 -36 -216 -131 -255 -236 -12 -33 -40 -83 -61 -111 -49 -66 -80 -146 -87 -227 -4 -54 -2 -67 17 -92 13 -19 21 -44 21 -70 0 -22 4 -40 8 -40 5 0 35 11 68 24 222 90 526 83 787 -19 14 -6 17 -1 17 35 0 27 7 51 20 67 41 52 12 206 -55 300 -19 26 -52 84 -74 129 -61 128 -143 206 -251 238 -63 19 -100 19 -155 2z"></path><path id="p18VDU94xk" d="M2530 1711 c-80 -18 -179 -51 -208 -69 -17 -11 81 -56 168 -77 189 -45 440 -22 589 54 l33 18 -52 22 c-150 65 -375 87 -530 52z"></path><path id="p124V0PP4Q" d="M2186 1564 c-34 -89 96 -271 246 -343 186 -88 421 -81 588 18 143 86 255 260 211 329 -7 11 -16 10 -47 -6 -66 -33 -205 -79 -284 -93 -205 -36 -470 0 -641 85 -59 30 -65 31 -73 10z m583 -185 c33 -20 34 -21 27 -76 -5 -45 -3 -58 10 -68 34 -24 5 -35 -96 -35 -100 0 -122 7 -94 31 12 10 14 24 9 70 -7 58 -7 58 27 79 42 25 74 25 117 -1z"></path></g></g></svg>