<svg class="img-fluid" id="outputsvg" xmlns="http://www.w3.org/2000/svg" style="transform: none; transform-origin: 50% 50%; cursor: move;" width="530" height="530" viewBox="0 0 5300 5300"><g id="lZSr1pj6tRxUEGbMy2uOt8" fill="rgb(255,255,255)" style="transform: none;"><g style="transform: none;"><path id="po2BAuDuh" d="M2494 5289 c-347 -18 -689 -109 -1013 -270 -266 -132 -460 -269 -670 -474 -450 -438 -724 -997 -791 -1614 -14 -133 -14 -429 0 -562 67 -617 341 -1176 791 -1614 215 -210 407 -344 684 -481 273 -134 576 -222 874 -254 133 -14 429 -14 562 0 298 32 601 120 874 254 277 137 469 271 684 481 450 438 724 997 791 1614 14 133 14 429 0 562 -67 617 -341 1176 -791 1614 -215 210 -407 344 -684 481 -410 201 -834 286 -1311 263z m596 -102 c531 -94 1000 -338 1381 -718 376 -375 619 -843 717 -1379 24 -135 26 -164 26 -440 0 -276 -2 -305 -26 -440 -98 -536 -341 -1004 -717 -1379 -380 -380 -844 -621 -1381 -719 -135 -24 -165 -26 -440 -26 -275 0 -305 2 -440 26 -535 98 -1000 339 -1379 716 -376 375 -621 846 -719 1382 -24 135 -26 165 -26 440 0 275 2 305 26 440 179 984 877 1761 1829 2035 257 74 424 94 749 91 221 -3 274 -7 400 -29z"></path><path id="pscfIhtqH" d="M2635 4278 c-51 -26 -239 -141 -283 -173 -216 -155 -399 -339 -557 -557 -81 -111 -231 -387 -285 -523 -18 -44 -36 -89 -41 -100 -25 -61 -83 -259 -113 -385 -63 -266 -96 -529 -96 -770 l0 -135 43 -26 c164 -99 619 -268 819 -304 l28 -5 -35 63 c-19 35 -35 73 -35 85 0 18 -17 26 -122 60 -143 47 -344 131 -440 185 l-68 38 0 72 c0 108 19 349 36 462 36 242 131 583 203 725 38 75 151 175 210 185 66 11 66 8 -12 -92 -17 -23 -62 -84 -100 -135 -77 -106 -76 -101 -19 -215 61 -123 135 -189 282 -253 30 -13 104 -45 164 -71 60 -26 116 -45 123 -42 16 6 75 123 123 243 37 92 58 130 70 130 11 0 29 -18 55 -54 11 -16 36 -48 55 -72 l35 -45 30 34 c17 18 48 54 70 80 22 26 47 47 55 47 10 0 37 -51 80 -147 65 -149 97 -209 115 -216 20 -8 384 157 439 199 52 39 127 148 157 227 l21 56 -109 148 c-121 164 -132 183 -104 183 56 0 86 -16 156 -84 79 -77 89 -95 157 -281 100 -278 178 -753 166 -1015 l-3 -75 -90 -47 c-144 -75 -333 -149 -522 -204 -7 -2 -13 -14 -13 -26 0 -13 -13 -51 -30 -86 -25 -53 -27 -62 -12 -58 9 2 69 18 132 35 215 57 435 141 624 239 l109 57 -6 205 c-15 499 -128 961 -338 1380 -190 378 -517 752 -829 946 -61 39 -242 135 -251 134 -2 -1 -22 -10 -44 -22z m467 -1189 l62 -31 63 31 c66 32 93 38 93 20 0 -5 -5 -42 -11 -80 l-11 -71 58 -54 c42 -39 55 -57 47 -65 -6 -6 -43 -15 -82 -22 l-72 -11 -30 -60 c-50 -100 -52 -100 -95 -13 l-37 75 -56 7 c-79 9 -101 16 -101 29 0 6 24 35 54 65 l53 52 -8 47 c-5 26 -11 62 -14 80 -8 42 6 42 87 1z m-742 -204 l0 -45 -162 2 -163 3 -3 28 c-7 57 -6 57 168 57 l160 0 0 -45z"></path><path id="pcwiGClRq" d="M2575 2450 c-95 -37 -192 -143 -230 -250 -8 -22 -33 -64 -55 -94 -74 -98 -104 -245 -61 -305 12 -17 21 -45 21 -66 0 -32 3 -36 18 -30 40 18 178 56 235 65 90 14 282 12 378 -5 72 -12 145 -33 212 -60 14 -6 17 -1 17 30 0 22 9 49 22 67 42 60 16 188 -62 303 -26 38 -51 81 -55 95 -25 88 -117 193 -211 240 -67 33 -160 37 -229 10z"></path><path id="pn4GTUM8" d="M2516 1680 c-56 -10 -121 -30 -186 -58 l-44 -19 69 -26 c116 -43 144 -48 290 -54 157 -6 230 5 352 53 l72 28 -54 23 c-102 43 -165 55 -310 58 -77 2 -162 0 -189 -5z"></path><path id="pmZTiZOVQ" d="M2160 1497 c0 -97 102 -222 239 -295 140 -74 312 -89 466 -41 173 54 335 217 335 338 0 22 -4 41 -8 41 -5 0 -37 -14 -73 -31 -35 -17 -107 -43 -159 -57 -85 -23 -114 -26 -275 -26 -157 -1 -191 2 -270 23 -49 13 -123 38 -163 57 -40 19 -77 34 -82 34 -6 0 -10 -19 -10 -43z m591 -148 c32 -22 37 -51 17 -95 -10 -22 -10 -28 5 -39 9 -7 17 -20 17 -29 0 -14 -15 -16 -110 -16 -103 0 -110 1 -110 20 0 12 7 20 16 20 13 0 15 6 9 33 -17 72 -13 89 30 114 46 27 81 25 126 -8z"></path></g></g></svg>